<?xml version="1.0" encoding="UTF-8"?>
<svg xmlns="http://www.w3.org/2000/svg" width="18in" height="14in" viewBox="0 0 1800 1400" font-family="Arial, sans-serif">
  <defs>
    <marker id="arrNavyG" markerWidth="5" markerHeight="5" refX="4.5" refY="2.5" orient="auto">
      <polygon points="0 0, 5 2.5, 0 5" fill="#005DAA"/>
    </marker>
    <marker id="arrOrangeG" markerWidth="5" markerHeight="5" refX="4.5" refY="2.5" orient="auto">
      <polygon points="0 0, 5 2.5, 0 5" fill="#D64309"/>
    </marker>
  </defs>

  <!-- Title strip -->
  <rect x="0" y="0" width="1800" height="130" fill="#ffffff" stroke="#0033A0" stroke-width="0"/>
  <line x1="0" y1="130" x2="1800" y2="130" stroke="#0033A0" stroke-width="4"/>
  <text x="60"   y="60" font-size="18" font-weight="700" fill="#0033A0" letter-spacing="0.14em">HOW OBJECT ANALYTICS + TIME DISAMBIGUATE THE CPDAG</text>
  <text x="60"   y="102" font-size="32" font-weight="700" fill="#3F4444">Four scenarios where flat tables stall and longitudinal objects settle the orientation.</text>

  <!-- 2x2 grid of panels — each 860 wide x 530 tall -->
  <!-- TOP-LEFT: Sepsis -->
  <g transform="translate(50, 170)">
    <rect x="0" y="0" width="820" height="530" rx="14" fill="#ffffff" stroke="#CDCDCD" stroke-width="2"/>
    <rect x="0" y="0" width="820" height="56" rx="14" fill="#0033A0"/>
    <rect x="0" y="42" width="820" height="14" fill="#0033A0"/>
    <text x="30" y="36" font-size="14" font-weight="700" fill="#ffffff" letter-spacing="0.1em">SCENARIO 1</text>
    <text x="180" y="36" font-size="20" font-weight="700" fill="#ffffff">Sepsis → antibiotic → mortality</text>

    <!-- Flat side -->
    <text x="40" y="92" font-size="12" font-weight="700" fill="#8a94a6" letter-spacing="0.1em">FLAT CPDAG · 3 CANDIDATES</text>

    <g transform="translate(40, 110)">
      <!-- DAG 1 -->
      <circle cx="20" cy="30" r="14" fill="#fff" stroke="#0033A0" stroke-width="2"/>
      <text x="20" y="34" text-anchor="middle" font-size="11" font-weight="700" fill="#0033A0">S</text>
      <circle cx="70" cy="30" r="14" fill="#fff" stroke="#0033A0" stroke-width="2"/>
      <text x="70" y="34" text-anchor="middle" font-size="11" font-weight="700" fill="#0033A0">A</text>
      <circle cx="120" cy="30" r="14" fill="#fff" stroke="#0033A0" stroke-width="2"/>
      <text x="120" y="34" text-anchor="middle" font-size="11" font-weight="700" fill="#0033A0">M</text>
      <line x1="34" y1="30" x2="56" y2="30" stroke="#005DAA" stroke-width="1.8" marker-end="url(#arrNavyG)"/>
      <line x1="84" y1="30" x2="106" y2="30" stroke="#005DAA" stroke-width="1.8" marker-end="url(#arrNavyG)"/>

      <g transform="translate(160, 0)">
        <circle cx="20" cy="30" r="14" fill="#fff" stroke="#0033A0" stroke-width="2"/>
        <text x="20" y="34" text-anchor="middle" font-size="11" font-weight="700" fill="#0033A0">S</text>
        <circle cx="70" cy="30" r="14" fill="#fff" stroke="#0033A0" stroke-width="2"/>
        <text x="70" y="34" text-anchor="middle" font-size="11" font-weight="700" fill="#0033A0">A</text>
        <circle cx="120" cy="30" r="14" fill="#fff" stroke="#0033A0" stroke-width="2"/>
        <text x="120" y="34" text-anchor="middle" font-size="11" font-weight="700" fill="#0033A0">M</text>
        <line x1="34" y1="30" x2="56" y2="30" stroke="#005DAA" stroke-width="1.8" marker-end="url(#arrNavyG)"/>
        <line x1="106" y1="30" x2="84" y2="30" stroke="#005DAA" stroke-width="1.8" marker-end="url(#arrNavyG)"/>
      </g>

      <g transform="translate(320, 0)">
        <circle cx="20" cy="30" r="14" fill="#fff" stroke="#0033A0" stroke-width="2"/>
        <text x="20" y="34" text-anchor="middle" font-size="11" font-weight="700" fill="#0033A0">S</text>
        <circle cx="70" cy="30" r="14" fill="#fff" stroke="#0033A0" stroke-width="2"/>
        <text x="70" y="34" text-anchor="middle" font-size="11" font-weight="700" fill="#0033A0">A</text>
        <circle cx="120" cy="30" r="14" fill="#fff" stroke="#0033A0" stroke-width="2"/>
        <text x="120" y="34" text-anchor="middle" font-size="11" font-weight="700" fill="#0033A0">M</text>
        <line x1="56" y1="30" x2="34" y2="30" stroke="#005DAA" stroke-width="1.8" marker-end="url(#arrNavyG)"/>
        <line x1="84" y1="30" x2="106" y2="30" stroke="#005DAA" stroke-width="1.8" marker-end="url(#arrNavyG)"/>
      </g>

      <text x="80"  y="70" text-anchor="middle" font-size="10" fill="#8a94a6" font-style="italic">mediation</text>
      <text x="240" y="70" text-anchor="middle" font-size="10" fill="#8a94a6" font-style="italic">collider</text>
      <text x="400" y="70" text-anchor="middle" font-size="10" fill="#8a94a6" font-style="italic">shared cause</text>
    </g>

    <!-- Divider -->
    <line x1="40" y1="230" x2="780" y2="230" stroke="#CDCDCD" stroke-width="1"/>
    <text x="410" y="252" text-anchor="middle" font-size="11" font-weight="700" fill="#0033A0" letter-spacing="0.12em">ADD ADMISSION OBJECT + EVENT TIMESTAMPS ↓</text>

    <!-- Timeline -->
    <line x1="80" y1="298" x2="740" y2="298" stroke="#CDCDCD" stroke-width="2"/>
    <circle cx="100" cy="298" r="10" fill="#0033A0"/>
    <text x="100" y="332" text-anchor="middle" font-size="10" fill="#8a94a6">ED · t=0</text>
    <circle cx="280" cy="298" r="11" fill="#0033A0"/>
    <text x="280" y="280" text-anchor="middle" font-size="11" font-weight="700" fill="#0033A0">S</text>
    <text x="280" y="332" text-anchor="middle" font-size="10" fill="#8a94a6">sepsis · t+1h</text>
    <circle cx="500" cy="298" r="11" fill="#D64309"/>
    <text x="500" y="280" text-anchor="middle" font-size="11" font-weight="700" fill="#D64309">A</text>
    <text x="500" y="332" text-anchor="middle" font-size="10" fill="#D64309">abx · t+3h</text>
    <circle cx="720" cy="298" r="11" fill="#0033A0"/>
    <text x="720" y="280" text-anchor="middle" font-size="11" font-weight="700" fill="#0033A0">M</text>
    <text x="720" y="332" text-anchor="middle" font-size="10" fill="#8a94a6">outcome · t+72h</text>

    <!-- Oriented DAG -->
    <text x="410" y="380" text-anchor="middle" font-size="11" font-weight="700" fill="#0033A0" letter-spacing="0.1em">ORIENTED DAG</text>
    <g transform="translate(170, 400)">
      <circle cx="20" cy="40" r="18" fill="#fff" stroke="#0033A0" stroke-width="2.5"/>
      <text x="20" y="44" text-anchor="middle" font-size="13" font-weight="700" fill="#0033A0">S</text>
      <circle cx="240" cy="40" r="18" fill="#D64309" stroke="#D64309" stroke-width="2.5"/>
      <text x="240" y="44" text-anchor="middle" font-size="13" font-weight="700" fill="#fff">A</text>
      <circle cx="470" cy="40" r="20" fill="#fff" stroke="#0033A0" stroke-width="3"/>
      <circle cx="470" cy="40" r="14" fill="#fff" stroke="#0033A0" stroke-width="1.5"/>
      <text x="470" y="44" text-anchor="middle" font-size="12" font-weight="700" fill="#0033A0">M</text>
      <line x1="38" y1="40" x2="220" y2="40" stroke="#005DAA" stroke-width="2.5" marker-end="url(#arrNavyG)"/>
      <line x1="260" y1="40" x2="450" y2="40" stroke="#D64309" stroke-width="3" marker-end="url(#arrOrangeG)"/>
      <text x="130" y="70" text-anchor="middle" font-size="10" fill="#8a94a6" font-style="italic">t(S) &lt; t(A)</text>
      <text x="355" y="70" text-anchor="middle" font-size="10" fill="#D64309" font-style="italic">time-to-abx = estimand</text>
    </g>

    <rect x="20" y="490" width="780" height="30" rx="6" fill="#FFF4E6"/>
    <text x="410" y="510" text-anchor="middle" font-size="11" fill="#D64309" font-style="italic">Takeaway: sepsis bundle (3h door-to-abx) only becomes an identifiable estimand once the admission object carries event clocks.</text>
  </g>

  <!-- TOP-RIGHT: Therapy switch -->
  <g transform="translate(930, 170)">
    <rect x="0" y="0" width="820" height="530" rx="14" fill="#ffffff" stroke="#CDCDCD" stroke-width="2"/>
    <rect x="0" y="0" width="820" height="56" rx="14" fill="#0033A0"/>
    <rect x="0" y="42" width="820" height="14" fill="#0033A0"/>
    <text x="30" y="36" font-size="14" font-weight="700" fill="#ffffff" letter-spacing="0.1em">SCENARIO 2</text>
    <text x="180" y="36" font-size="20" font-weight="700" fill="#ffffff">Drug switch &amp; adverse event</text>

    <text x="40" y="92" font-size="12" font-weight="700" fill="#8a94a6" letter-spacing="0.1em">FLAT CPDAG · 3 CANDIDATES</text>

    <g transform="translate(40, 110)">
      <!-- A → ADR → B -->
      <circle cx="20" cy="30" r="14" fill="#fff" stroke="#0033A0" stroke-width="2"/>
      <text x="20" y="34" text-anchor="middle" font-size="11" font-weight="700" fill="#0033A0">A</text>
      <circle cx="80" cy="30" r="16" fill="#fff" stroke="#0033A0" stroke-width="2"/>
      <text x="80" y="34" text-anchor="middle" font-size="10" font-weight="700" fill="#0033A0">ADR</text>
      <circle cx="140" cy="30" r="14" fill="#fff" stroke="#0033A0" stroke-width="2"/>
      <text x="140" y="34" text-anchor="middle" font-size="11" font-weight="700" fill="#0033A0">B</text>
      <line x1="34" y1="30" x2="64" y2="30" stroke="#005DAA" stroke-width="1.8" marker-end="url(#arrNavyG)"/>
      <line x1="96" y1="30" x2="126" y2="30" stroke="#005DAA" stroke-width="1.8" marker-end="url(#arrNavyG)"/>

      <g transform="translate(170, 0)">
        <circle cx="20" cy="30" r="14" fill="#fff" stroke="#0033A0" stroke-width="2"/>
        <text x="20" y="34" text-anchor="middle" font-size="11" font-weight="700" fill="#0033A0">A</text>
        <circle cx="80" cy="30" r="16" fill="#fff" stroke="#0033A0" stroke-width="2"/>
        <text x="80" y="34" text-anchor="middle" font-size="10" font-weight="700" fill="#0033A0">ADR</text>
        <circle cx="140" cy="30" r="14" fill="#fff" stroke="#0033A0" stroke-width="2"/>
        <text x="140" y="34" text-anchor="middle" font-size="11" font-weight="700" fill="#0033A0">B</text>
        <line x1="64" y1="30" x2="34" y2="30" stroke="#005DAA" stroke-width="1.8" marker-end="url(#arrNavyG)"/>
        <line x1="126" y1="30" x2="96" y2="30" stroke="#005DAA" stroke-width="1.8" marker-end="url(#arrNavyG)"/>
      </g>

      <g transform="translate(340, 0)">
        <circle cx="20" cy="30" r="14" fill="#fff" stroke="#0033A0" stroke-width="2"/>
        <text x="20" y="34" text-anchor="middle" font-size="11" font-weight="700" fill="#0033A0">A</text>
        <circle cx="80" cy="30" r="16" fill="#fff" stroke="#0033A0" stroke-width="2"/>
        <text x="80" y="34" text-anchor="middle" font-size="10" font-weight="700" fill="#0033A0">ADR</text>
        <circle cx="140" cy="30" r="14" fill="#fff" stroke="#0033A0" stroke-width="2"/>
        <text x="140" y="34" text-anchor="middle" font-size="11" font-weight="700" fill="#0033A0">B</text>
        <line x1="34" y1="30" x2="64" y2="30" stroke="#005DAA" stroke-width="1.8" marker-end="url(#arrNavyG)"/>
        <line x1="126" y1="30" x2="96" y2="30" stroke="#005DAA" stroke-width="1.8" marker-end="url(#arrNavyG)"/>
      </g>

      <text x="85"  y="70" text-anchor="middle" font-size="10" fill="#8a94a6" font-style="italic">A caused ADR</text>
      <text x="255" y="70" text-anchor="middle" font-size="10" fill="#8a94a6" font-style="italic">B caused ADR</text>
      <text x="425" y="70" text-anchor="middle" font-size="10" fill="#8a94a6" font-style="italic">additive</text>
    </g>

    <line x1="40" y1="230" x2="780" y2="230" stroke="#CDCDCD" stroke-width="1"/>
    <text x="410" y="252" text-anchor="middle" font-size="11" font-weight="700" fill="#0033A0" letter-spacing="0.12em">ADD PATIENT JOURNEY OBJECT + DISPENSE DATES ↓</text>

    <!-- Timeline -->
    <line x1="80" y1="298" x2="740" y2="298" stroke="#CDCDCD" stroke-width="2"/>
    <rect x="100" y="292" width="220" height="12" rx="3" fill="#0033A0"/>
    <text x="210" y="332" text-anchor="middle" font-size="10" fill="#0033A0" font-style="italic">drug A · days 0–120</text>
    <polygon points="395,282 415,282 405,298" fill="#D64309"/>
    <text x="405" y="278" text-anchor="middle" font-size="11" font-weight="700" fill="#D64309">ADR</text>
    <text x="405" y="332" text-anchor="middle" font-size="10" fill="#D64309">day 120</text>
    <rect x="470" y="292" width="170" height="12" rx="3" fill="#005DAA" fill-opacity="0.7"/>
    <text x="555" y="332" text-anchor="middle" font-size="10" fill="#005DAA" font-style="italic">drug B · day 140+</text>

    <text x="410" y="380" text-anchor="middle" font-size="11" font-weight="700" fill="#0033A0" letter-spacing="0.1em">ORIENTED DAG</text>
    <g transform="translate(170, 400)">
      <circle cx="20"  cy="40" r="18" fill="#fff" stroke="#0033A0" stroke-width="2.5"/>
      <text x="20" y="44" text-anchor="middle" font-size="13" font-weight="700" fill="#0033A0">A</text>
      <circle cx="240" cy="40" r="22" fill="#D64309" stroke="#D64309" stroke-width="2.5"/>
      <text x="240" y="44" text-anchor="middle" font-size="11" font-weight="700" fill="#fff">ADR</text>
      <circle cx="470" cy="40" r="18" fill="#fff" stroke="#0033A0" stroke-width="2.5"/>
      <text x="470" y="44" text-anchor="middle" font-size="13" font-weight="700" fill="#0033A0">B</text>
      <line x1="38"  y1="40" x2="218" y2="40" stroke="#D64309" stroke-width="3" marker-end="url(#arrOrangeG)"/>
      <line x1="262" y1="40" x2="452" y2="40" stroke="#005DAA" stroke-width="2.5" marker-end="url(#arrNavyG)"/>
      <text x="128" y="70" text-anchor="middle" font-size="10" fill="#D64309" font-style="italic">candidate attribution</text>
      <text x="355" y="70" text-anchor="middle" font-size="10" fill="#8a94a6" font-style="italic">ADR prompts switch</text>
    </g>

    <rect x="20" y="490" width="780" height="30" rx="6" fill="#FFF4E6"/>
    <text x="410" y="510" text-anchor="middle" font-size="11" fill="#D64309" font-style="italic">Takeaway: pharmacovigilance question resolved — drug B wasn’t started yet when the ADR appeared.</text>
  </g>

  <!-- BOTTOM-LEFT: Disease progression -->
  <g transform="translate(50, 730)">
    <rect x="0" y="0" width="820" height="530" rx="14" fill="#ffffff" stroke="#CDCDCD" stroke-width="2"/>
    <rect x="0" y="0" width="820" height="56" rx="14" fill="#0033A0"/>
    <rect x="0" y="42" width="820" height="14" fill="#0033A0"/>
    <text x="30" y="36" font-size="14" font-weight="700" fill="#ffffff" letter-spacing="0.1em">SCENARIO 3</text>
    <text x="180" y="36" font-size="20" font-weight="700" fill="#ffffff">Chronic disease progression</text>

    <text x="40" y="92" font-size="12" font-weight="700" fill="#8a94a6" letter-spacing="0.1em">CPDAG · UNDIRECTED TRIANGLE</text>

    <g transform="translate(280, 100)">
      <circle cx="120" cy="30" r="22" fill="#fff" stroke="#0033A0" stroke-width="2.5"/>
      <text x="120" y="28" text-anchor="middle" font-size="11" font-weight="700" fill="#0033A0">T2D</text>
      <text x="120" y="42" text-anchor="middle" font-size="9" fill="#3F4444">diabetes</text>
      <circle cx="50" cy="130" r="22" fill="#fff" stroke="#0033A0" stroke-width="2.5"/>
      <text x="50" y="128" text-anchor="middle" font-size="11" font-weight="700" fill="#0033A0">HTN</text>
      <text x="50" y="142" text-anchor="middle" font-size="9" fill="#3F4444">htn</text>
      <circle cx="190" cy="130" r="22" fill="#fff" stroke="#0033A0" stroke-width="2.5"/>
      <text x="190" y="128" text-anchor="middle" font-size="11" font-weight="700" fill="#0033A0">CKD</text>
      <text x="190" y="142" text-anchor="middle" font-size="9" fill="#3F4444">kidney</text>
      <line x1="103" y1="48" x2="60" y2="110" stroke="#8a94a6" stroke-width="2"/>
      <line x1="137" y1="48" x2="180" y2="110" stroke="#8a94a6" stroke-width="2"/>
      <line x1="72" y1="130" x2="168" y2="130" stroke="#8a94a6" stroke-width="2"/>
      <text x="72" y="88" font-size="14" font-weight="700" fill="#8a94a6">?</text>
      <text x="164" y="88" font-size="14" font-weight="700" fill="#8a94a6">?</text>
      <text x="115" y="145" font-size="14" font-weight="700" fill="#8a94a6">?</text>
    </g>

    <line x1="40" y1="280" x2="780" y2="280" stroke="#CDCDCD" stroke-width="1"/>
    <text x="410" y="302" text-anchor="middle" font-size="11" font-weight="700" fill="#0033A0" letter-spacing="0.12em">ADD PATIENT OBJECT + FIRST-DIAGNOSIS DATES ↓</text>

    <!-- Timeline -->
    <line x1="80" y1="348" x2="740" y2="348" stroke="#CDCDCD" stroke-width="2"/>
    <text x="80" y="378" font-size="10" fill="#8a94a6">age 50</text>
    <text x="740" y="378" text-anchor="end" font-size="10" fill="#8a94a6">age 65</text>
    <circle cx="250" cy="348" r="11" fill="#0033A0"/>
    <text x="250" y="334" text-anchor="middle" font-size="11" font-weight="700" fill="#0033A0">T2D</text>
    <text x="250" y="378" text-anchor="middle" font-size="10" fill="#8a94a6">age 54</text>
    <circle cx="430" cy="348" r="11" fill="#0033A0"/>
    <text x="430" y="334" text-anchor="middle" font-size="11" font-weight="700" fill="#0033A0">HTN</text>
    <text x="430" y="378" text-anchor="middle" font-size="10" fill="#8a94a6">age 58</text>
    <circle cx="640" cy="348" r="11" fill="#D64309"/>
    <text x="640" y="334" text-anchor="middle" font-size="11" font-weight="700" fill="#D64309">CKD</text>
    <text x="640" y="378" text-anchor="middle" font-size="10" fill="#D64309">age 63</text>

    <text x="410" y="418" text-anchor="middle" font-size="11" font-weight="700" fill="#0033A0" letter-spacing="0.1em">ORIENTED PROGRESSION</text>
    <g transform="translate(180, 430)">
      <circle cx="20" cy="40" r="20" fill="#fff" stroke="#0033A0" stroke-width="2.5"/>
      <text x="20" y="44" text-anchor="middle" font-size="12" font-weight="700" fill="#0033A0">T2D</text>
      <circle cx="220" cy="40" r="20" fill="#fff" stroke="#0033A0" stroke-width="2.5"/>
      <text x="220" y="44" text-anchor="middle" font-size="12" font-weight="700" fill="#0033A0">HTN</text>
      <circle cx="440" cy="40" r="22" fill="#D64309" stroke="#D64309" stroke-width="2.5"/>
      <text x="440" y="44" text-anchor="middle" font-size="12" font-weight="700" fill="#fff">CKD</text>
      <line x1="40" y1="40" x2="200" y2="40" stroke="#005DAA" stroke-width="2.5" marker-end="url(#arrNavyG)"/>
      <line x1="242" y1="40" x2="418" y2="40" stroke="#D64309" stroke-width="3" marker-end="url(#arrOrangeG)"/>
    </g>

    <rect x="20" y="490" width="780" height="30" rx="6" fill="#FFF4E6"/>
    <text x="410" y="510" text-anchor="middle" font-size="11" fill="#D64309" font-style="italic">Takeaway: across millions of dated trajectories, the payer-relevant intervention window — glycemic control — becomes visible.</text>
  </g>

  <!-- BOTTOM-RIGHT: Cancer lifecourse -->
  <g transform="translate(930, 730)">
    <rect x="0" y="0" width="820" height="530" rx="14" fill="#ffffff" stroke="#CDCDCD" stroke-width="2"/>
    <rect x="0" y="0" width="820" height="56" rx="14" fill="#0033A0"/>
    <rect x="0" y="42" width="820" height="14" fill="#0033A0"/>
    <text x="30" y="36" font-size="14" font-weight="700" fill="#ffffff" letter-spacing="0.1em">SCENARIO 4</text>
    <text x="180" y="36" font-size="20" font-weight="700" fill="#ffffff">Breast-cancer risk: life-course ordering</text>

    <text x="40" y="92" font-size="12" font-weight="700" fill="#8a94a6" letter-spacing="0.1em">DENSE UNDIRECTED CPDAG</text>

    <g transform="translate(150, 104)">
      <circle cx="250" cy="150" r="22" fill="#fff" stroke="#0033A0" stroke-width="3"/>
      <circle cx="250" cy="150" r="15" fill="#fff" stroke="#0033A0" stroke-width="1.5"/>
      <text x="250" y="154" text-anchor="middle" font-size="11" font-weight="700" fill="#0033A0">BC</text>
      <circle cx="50" cy="30" r="18" fill="#fff" stroke="#0033A0" stroke-width="2"/>
      <text x="50" y="27" text-anchor="middle" font-size="9" font-weight="700" fill="#0033A0">fam</text>
      <text x="50" y="39" text-anchor="middle" font-size="9" font-weight="700" fill="#0033A0">hx</text>
      <circle cx="180" cy="20" r="18" fill="#fff" stroke="#0033A0" stroke-width="2"/>
      <text x="180" y="24" text-anchor="middle" font-size="9" font-weight="700" fill="#0033A0">menar</text>
      <circle cx="320" cy="20" r="18" fill="#fff" stroke="#0033A0" stroke-width="2"/>
      <text x="320" y="24" text-anchor="middle" font-size="9" font-weight="700" fill="#0033A0">parity</text>
      <circle cx="450" cy="30" r="18" fill="#fff" stroke="#0033A0" stroke-width="2"/>
      <text x="450" y="34" text-anchor="middle" font-size="9" font-weight="700" fill="#0033A0">HRT</text>

      <line x1="65" y1="45" x2="230" y2="135" stroke="#8a94a6" stroke-width="1.7"/>
      <line x1="180" y1="38" x2="245" y2="128" stroke="#8a94a6" stroke-width="1.7"/>
      <line x1="320" y1="38" x2="255" y2="128" stroke="#8a94a6" stroke-width="1.7"/>
      <line x1="440" y1="45" x2="270" y2="135" stroke="#8a94a6" stroke-width="1.7"/>
      <line x1="65" y1="30" x2="160" y2="22" stroke="#CDCDCD" stroke-width="1"/>
      <line x1="200" y1="20" x2="300" y2="20" stroke="#CDCDCD" stroke-width="1"/>
      <line x1="340" y1="22" x2="430" y2="28" stroke="#CDCDCD" stroke-width="1"/>
    </g>

    <line x1="40" y1="280" x2="780" y2="280" stroke="#CDCDCD" stroke-width="1"/>
    <text x="410" y="302" text-anchor="middle" font-size="11" font-weight="700" fill="#0033A0" letter-spacing="0.12em">ADD LIFE-COURSE OBJECT + DATED MILESTONES ↓</text>

    <!-- Timeline -->
    <line x1="80" y1="348" x2="740" y2="348" stroke="#CDCDCD" stroke-width="2"/>
    <rect x="75" y="340" width="18" height="16" fill="#8a94a6"/>
    <text x="84" y="334" text-anchor="middle" font-size="10" font-weight="700" fill="#8a94a6">fam hx</text>
    <text x="84" y="378" text-anchor="middle" font-size="10" fill="#8a94a6">birth</text>
    <circle cx="225" cy="348" r="10" fill="#0033A0"/>
    <text x="225" y="334" text-anchor="middle" font-size="10" font-weight="700" fill="#0033A0">menar.</text>
    <text x="225" y="378" text-anchor="middle" font-size="10" fill="#8a94a6">age 12</text>
    <circle cx="385" cy="348" r="10" fill="#0033A0"/>
    <text x="385" y="334" text-anchor="middle" font-size="10" font-weight="700" fill="#0033A0">parity</text>
    <text x="385" y="378" text-anchor="middle" font-size="10" fill="#8a94a6">age 28</text>
    <circle cx="545" cy="348" r="10" fill="#0033A0"/>
    <text x="545" y="334" text-anchor="middle" font-size="10" font-weight="700" fill="#0033A0">HRT</text>
    <text x="545" y="378" text-anchor="middle" font-size="10" fill="#8a94a6">age 48</text>
    <circle cx="705" cy="348" r="12" fill="#D64309"/>
    <text x="705" y="334" text-anchor="middle" font-size="10" font-weight="700" fill="#D64309">BC dx</text>
    <text x="705" y="378" text-anchor="middle" font-size="10" fill="#D64309">age 52</text>

    <text x="410" y="418" text-anchor="middle" font-size="11" font-weight="700" fill="#0033A0" letter-spacing="0.1em">ORIENTED LIFE-COURSE DAG</text>
    <g transform="translate(90, 436)">
      <rect x="0" y="32" width="70" height="24" rx="5" fill="#F6F8FC" stroke="#8a94a6" stroke-width="1.8"/>
      <text x="35" y="48" text-anchor="middle" font-size="10" font-weight="700" fill="#3F4444">fam hx</text>
      <circle cx="130" cy="44" r="16" fill="#fff" stroke="#0033A0" stroke-width="2"/>
      <text x="130" y="48" text-anchor="middle" font-size="10" font-weight="700" fill="#0033A0">menar.</text>
      <circle cx="230" cy="44" r="16" fill="#fff" stroke="#0033A0" stroke-width="2"/>
      <text x="230" y="48" text-anchor="middle" font-size="10" font-weight="700" fill="#0033A0">parity</text>
      <circle cx="340" cy="44" r="18" fill="#fff" stroke="#D64309" stroke-width="2.5"/>
      <text x="340" y="48" text-anchor="middle" font-size="10" font-weight="700" fill="#D64309">HRT</text>
      <circle cx="460" cy="44" r="22" fill="#D64309" stroke="#D64309" stroke-width="2.5"/>
      <text x="460" y="48" text-anchor="middle" font-size="11" font-weight="700" fill="#fff">BC</text>
      <line x1="70" y1="44" x2="112" y2="44" stroke="#005DAA" stroke-width="2" marker-end="url(#arrNavyG)"/>
      <line x1="146" y1="44" x2="214" y2="44" stroke="#005DAA" stroke-width="2" marker-end="url(#arrNavyG)"/>
      <line x1="246" y1="44" x2="320" y2="44" stroke="#005DAA" stroke-width="2" marker-end="url(#arrNavyG)"/>
      <line x1="358" y1="44" x2="436" y2="44" stroke="#D64309" stroke-width="2.8" marker-end="url(#arrOrangeG)"/>
    </g>

    <rect x="20" y="490" width="780" height="30" rx="6" fill="#FFF4E6"/>
    <text x="410" y="510" text-anchor="middle" font-size="11" fill="#D64309" font-style="italic">Takeaway: immutable-at-birth + dated milestones separate policy levers (HRT) from fixed risk (genetics).</text>
  </g>

  <!-- Footer -->
  <rect x="50" y="1290" width="1700" height="90" rx="10" fill="#F6F8FC" stroke="#0033A0" stroke-width="2"/>
  <text x="70" y="1320" font-size="15" font-weight="700" fill="#0033A0" letter-spacing="0.1em">COMMON THREAD</text>
  <text x="70" y="1345" font-size="14" fill="#3F4444">
    An object-analytics engine keeps the things a flat table throws away: <tspan font-weight="700">event timestamps</tspan>,
    <tspan font-weight="700">start/stop runs</tspan>, <tspan font-weight="700">diagnosis dates</tspan>, and <tspan font-weight="700">immutability-at-birth</tspan>.
  </text>
  <text x="70" y="1367" font-size="14" fill="#3F4444">
    These constraints collapse the Markov equivalence class to a single oriented DAG — turning flagged edges into identifiable estimands for TMLE and longitudinal g-methods downstream.
  </text>
</svg>
